<mxfile host="app.diagrams.net" modified="2023-10-12T21:27:54.066Z" agent="Mozilla/5.0 (Macintosh; Intel Mac OS X 10.15; rv:109.0) Gecko/20100101 Firefox/118.0" etag="8c7fSrlB4Js_MkvAKzet" version="22.0.4" type="device">
  <diagram name="Page-1" id="rLOyFdFmIQ4bdtBOylwv">
    <mxGraphModel dx="1327" dy="1990" grid="1" gridSize="10" guides="1" tooltips="1" connect="1" arrows="1" fold="1" page="1" pageScale="1" pageWidth="827" pageHeight="1169" math="0" shadow="0">
      <root>
        <mxCell id="0" />
        <mxCell id="1" parent="0" />
        <mxCell id="XB9ZX82qE_2Oj1gt79N6-38" value="" style="rounded=0;whiteSpace=wrap;html=1;" vertex="1" parent="1">
          <mxGeometry y="-115" width="820" height="660" as="geometry" />
        </mxCell>
        <mxCell id="jJKlzhtBrw8RwIzrtY0X-2" value="" style="rounded=0;whiteSpace=wrap;html=1;fillColor=none;" parent="1" vertex="1">
          <mxGeometry x="40" y="120" width="400" height="190" as="geometry" />
        </mxCell>
        <mxCell id="jJKlzhtBrw8RwIzrtY0X-25" value="" style="rounded=0;whiteSpace=wrap;html=1;fillColor=none;" parent="1" vertex="1">
          <mxGeometry x="40" y="350" width="400" height="160" as="geometry" />
        </mxCell>
        <mxCell id="XB9ZX82qE_2Oj1gt79N6-8" style="edgeStyle=orthogonalEdgeStyle;rounded=0;orthogonalLoop=1;jettySize=auto;html=1;entryX=0.5;entryY=0;entryDx=0;entryDy=0;" edge="1" parent="1" source="XB9ZX82qE_2Oj1gt79N6-4" target="XB9ZX82qE_2Oj1gt79N6-5">
          <mxGeometry relative="1" as="geometry">
            <Array as="points">
              <mxPoint x="233" y="400" />
              <mxPoint x="100" y="400" />
            </Array>
          </mxGeometry>
        </mxCell>
        <mxCell id="XB9ZX82qE_2Oj1gt79N6-12" style="edgeStyle=orthogonalEdgeStyle;rounded=0;orthogonalLoop=1;jettySize=auto;html=1;" edge="1" parent="1" source="XB9ZX82qE_2Oj1gt79N6-4" target="XB9ZX82qE_2Oj1gt79N6-9">
          <mxGeometry relative="1" as="geometry">
            <Array as="points">
              <mxPoint x="233" y="400" />
              <mxPoint x="340" y="400" />
            </Array>
          </mxGeometry>
        </mxCell>
        <mxCell id="XB9ZX82qE_2Oj1gt79N6-4" value="" style="rounded=0;whiteSpace=wrap;html=1;fillColor=#d5e8d4;strokeColor=#82b366;" vertex="1" parent="1">
          <mxGeometry x="55" y="240" width="355" height="60" as="geometry" />
        </mxCell>
        <mxCell id="jJKlzhtBrw8RwIzrtY0X-3" value="" style="sketch=0;outlineConnect=0;fontColor=#232F3E;gradientColor=none;fillColor=#8C4FFF;strokeColor=none;dashed=0;verticalLabelPosition=bottom;verticalAlign=top;align=center;html=1;fontSize=12;fontStyle=0;aspect=fixed;pointerEvents=1;shape=mxgraph.aws4.hosted_zone;" parent="1" vertex="1">
          <mxGeometry x="40" y="120" width="50.65" height="50" as="geometry" />
        </mxCell>
        <mxCell id="jJKlzhtBrw8RwIzrtY0X-4" value="aws.domain.com" style="text;html=1;strokeColor=none;fillColor=none;align=center;verticalAlign=middle;whiteSpace=wrap;rounded=0;" parent="1" vertex="1">
          <mxGeometry x="80" y="130" width="130" height="30" as="geometry" />
        </mxCell>
        <mxCell id="jJKlzhtBrw8RwIzrtY0X-10" style="edgeStyle=orthogonalEdgeStyle;rounded=0;orthogonalLoop=1;jettySize=auto;html=1;entryX=0.5;entryY=0;entryDx=0;entryDy=0;" parent="1" source="jJKlzhtBrw8RwIzrtY0X-5" target="jJKlzhtBrw8RwIzrtY0X-2" edge="1">
          <mxGeometry relative="1" as="geometry" />
        </mxCell>
        <mxCell id="jJKlzhtBrw8RwIzrtY0X-5" value="" style="rounded=0;whiteSpace=wrap;html=1;fillColor=none;" parent="1" vertex="1">
          <mxGeometry x="40" y="10" width="400" height="60" as="geometry" />
        </mxCell>
        <mxCell id="jJKlzhtBrw8RwIzrtY0X-6" value="Domain Host" style="text;html=1;strokeColor=none;fillColor=none;align=center;verticalAlign=middle;whiteSpace=wrap;rounded=0;" parent="1" vertex="1">
          <mxGeometry x="40" y="10" width="90" height="20" as="geometry" />
        </mxCell>
        <mxCell id="jJKlzhtBrw8RwIzrtY0X-7" value="NS" style="text;html=1;strokeColor=none;fillColor=none;align=center;verticalAlign=middle;whiteSpace=wrap;rounded=0;" parent="1" vertex="1">
          <mxGeometry x="50" y="30" width="60" height="30" as="geometry" />
        </mxCell>
        <mxCell id="jJKlzhtBrw8RwIzrtY0X-8" value="aws.domain.com" style="text;html=1;strokeColor=none;fillColor=none;align=center;verticalAlign=middle;whiteSpace=wrap;rounded=0;" parent="1" vertex="1">
          <mxGeometry x="150" y="30" width="100" height="30" as="geometry" />
        </mxCell>
        <mxCell id="jJKlzhtBrw8RwIzrtY0X-9" value="awsNameserver" style="text;html=1;strokeColor=none;fillColor=none;align=center;verticalAlign=middle;whiteSpace=wrap;rounded=0;" parent="1" vertex="1">
          <mxGeometry x="280" y="30" width="100" height="30" as="geometry" />
        </mxCell>
        <mxCell id="jJKlzhtBrw8RwIzrtY0X-11" value="" style="rounded=0;whiteSpace=wrap;html=1;fillColor=none;" parent="1" vertex="1">
          <mxGeometry x="40" y="120" width="170" height="50" as="geometry" />
        </mxCell>
        <mxCell id="jJKlzhtBrw8RwIzrtY0X-12" value="CNAME" style="text;html=1;strokeColor=none;fillColor=none;align=center;verticalAlign=middle;whiteSpace=wrap;rounded=0;" parent="1" vertex="1">
          <mxGeometry x="55" y="240" width="60" height="30" as="geometry" />
        </mxCell>
        <mxCell id="jJKlzhtBrw8RwIzrtY0X-13" value="pocketbase." style="text;html=1;strokeColor=none;fillColor=none;align=center;verticalAlign=middle;whiteSpace=wrap;rounded=0;" parent="1" vertex="1">
          <mxGeometry x="160" y="240" width="80" height="30" as="geometry" />
        </mxCell>
        <mxCell id="jJKlzhtBrw8RwIzrtY0X-14" value="alb-public-dns" style="text;html=1;strokeColor=none;fillColor=none;align=center;verticalAlign=middle;whiteSpace=wrap;rounded=0;" parent="1" vertex="1">
          <mxGeometry x="290" y="240" width="90" height="30" as="geometry" />
        </mxCell>
        <mxCell id="jJKlzhtBrw8RwIzrtY0X-15" value="CNAME" style="text;html=1;strokeColor=none;fillColor=none;align=center;verticalAlign=middle;whiteSpace=wrap;rounded=0;" parent="1" vertex="1">
          <mxGeometry x="55" y="180" width="60" height="30" as="geometry" />
        </mxCell>
        <mxCell id="jJKlzhtBrw8RwIzrtY0X-16" value="CNAME" style="text;html=1;strokeColor=none;fillColor=none;align=center;verticalAlign=middle;whiteSpace=wrap;rounded=0;" parent="1" vertex="1">
          <mxGeometry x="55" y="210" width="60" height="30" as="geometry" />
        </mxCell>
        <mxCell id="jJKlzhtBrw8RwIzrtY0X-17" value="values.pocketbase" style="text;html=1;strokeColor=none;fillColor=none;align=center;verticalAlign=middle;whiteSpace=wrap;rounded=0;" parent="1" vertex="1">
          <mxGeometry x="160" y="175" width="80" height="30" as="geometry" />
        </mxCell>
        <mxCell id="jJKlzhtBrw8RwIzrtY0X-18" value="acmvalue" style="text;html=1;strokeColor=none;fillColor=none;align=center;verticalAlign=middle;whiteSpace=wrap;rounded=0;" parent="1" vertex="1">
          <mxGeometry x="295" y="175" width="80" height="30" as="geometry" />
        </mxCell>
        <mxCell id="jJKlzhtBrw8RwIzrtY0X-19" value="values.www.pocketbase" style="text;html=1;strokeColor=none;fillColor=none;align=center;verticalAlign=middle;whiteSpace=wrap;rounded=0;" parent="1" vertex="1">
          <mxGeometry x="160" y="205" width="80" height="30" as="geometry" />
        </mxCell>
        <mxCell id="jJKlzhtBrw8RwIzrtY0X-20" value="acmvalue" style="text;html=1;strokeColor=none;fillColor=none;align=center;verticalAlign=middle;whiteSpace=wrap;rounded=0;" parent="1" vertex="1">
          <mxGeometry x="295" y="205" width="80" height="30" as="geometry" />
        </mxCell>
        <mxCell id="jJKlzhtBrw8RwIzrtY0X-21" value="" style="sketch=0;outlineConnect=0;fontColor=#232F3E;gradientColor=none;fillColor=#8C4FFF;strokeColor=none;dashed=0;verticalLabelPosition=bottom;verticalAlign=top;align=center;html=1;fontSize=12;fontStyle=0;aspect=fixed;pointerEvents=1;shape=mxgraph.aws4.application_load_balancer;" parent="1" vertex="1">
          <mxGeometry x="40" y="350" width="40" height="40" as="geometry" />
        </mxCell>
        <mxCell id="jJKlzhtBrw8RwIzrtY0X-22" value="alb-public-dns" style="text;html=1;strokeColor=none;fillColor=none;align=center;verticalAlign=middle;whiteSpace=wrap;rounded=0;" parent="1" vertex="1">
          <mxGeometry x="80" y="360" width="110" height="30" as="geometry" />
        </mxCell>
        <mxCell id="XB9ZX82qE_2Oj1gt79N6-1" value="CNAME" style="text;html=1;strokeColor=none;fillColor=none;align=center;verticalAlign=middle;whiteSpace=wrap;rounded=0;" vertex="1" parent="1">
          <mxGeometry x="55" y="270" width="60" height="30" as="geometry" />
        </mxCell>
        <mxCell id="XB9ZX82qE_2Oj1gt79N6-2" value="www.pocketbase." style="text;html=1;strokeColor=none;fillColor=none;align=center;verticalAlign=middle;whiteSpace=wrap;rounded=0;" vertex="1" parent="1">
          <mxGeometry x="160" y="270" width="80" height="30" as="geometry" />
        </mxCell>
        <mxCell id="XB9ZX82qE_2Oj1gt79N6-3" value="alb-public-dns" style="text;html=1;strokeColor=none;fillColor=none;align=center;verticalAlign=middle;whiteSpace=wrap;rounded=0;" vertex="1" parent="1">
          <mxGeometry x="290" y="270" width="90" height="30" as="geometry" />
        </mxCell>
        <mxCell id="XB9ZX82qE_2Oj1gt79N6-13" style="edgeStyle=orthogonalEdgeStyle;rounded=0;orthogonalLoop=1;jettySize=auto;html=1;" edge="1" parent="1" source="XB9ZX82qE_2Oj1gt79N6-5" target="XB9ZX82qE_2Oj1gt79N6-9">
          <mxGeometry relative="1" as="geometry" />
        </mxCell>
        <mxCell id="XB9ZX82qE_2Oj1gt79N6-5" value="" style="rounded=0;whiteSpace=wrap;html=1;" vertex="1" parent="1">
          <mxGeometry x="55" y="420" width="90" height="50" as="geometry" />
        </mxCell>
        <mxCell id="XB9ZX82qE_2Oj1gt79N6-6" value="http listener" style="text;html=1;strokeColor=none;fillColor=none;align=center;verticalAlign=middle;whiteSpace=wrap;rounded=0;" vertex="1" parent="1">
          <mxGeometry x="70" y="430" width="60" height="30" as="geometry" />
        </mxCell>
        <mxCell id="XB9ZX82qE_2Oj1gt79N6-7" value=":80" style="text;html=1;strokeColor=none;fillColor=none;align=center;verticalAlign=middle;whiteSpace=wrap;rounded=0;" vertex="1" parent="1">
          <mxGeometry x="70" y="470" width="60" height="30" as="geometry" />
        </mxCell>
        <mxCell id="XB9ZX82qE_2Oj1gt79N6-24" style="edgeStyle=orthogonalEdgeStyle;rounded=0;orthogonalLoop=1;jettySize=auto;html=1;entryX=0;entryY=0.5;entryDx=0;entryDy=0;" edge="1" parent="1" source="XB9ZX82qE_2Oj1gt79N6-9" target="XB9ZX82qE_2Oj1gt79N6-22">
          <mxGeometry relative="1" as="geometry">
            <Array as="points">
              <mxPoint x="460" y="445" />
              <mxPoint x="460" y="320" />
            </Array>
          </mxGeometry>
        </mxCell>
        <mxCell id="XB9ZX82qE_2Oj1gt79N6-9" value="https &lt;br&gt;listener" style="rounded=0;whiteSpace=wrap;html=1;" vertex="1" parent="1">
          <mxGeometry x="295" y="420" width="90" height="50" as="geometry" />
        </mxCell>
        <mxCell id="XB9ZX82qE_2Oj1gt79N6-10" value=":443" style="text;html=1;strokeColor=none;fillColor=none;align=center;verticalAlign=middle;whiteSpace=wrap;rounded=0;" vertex="1" parent="1">
          <mxGeometry x="310" y="470" width="60" height="30" as="geometry" />
        </mxCell>
        <mxCell id="XB9ZX82qE_2Oj1gt79N6-14" value="eu-west-2" style="points=[[0,0],[0.25,0],[0.5,0],[0.75,0],[1,0],[1,0.25],[1,0.5],[1,0.75],[1,1],[0.75,1],[0.5,1],[0.25,1],[0,1],[0,0.75],[0,0.5],[0,0.25]];outlineConnect=0;gradientColor=none;html=1;whiteSpace=wrap;fontSize=12;fontStyle=0;container=1;pointerEvents=0;collapsible=0;recursiveResize=0;shape=mxgraph.aws4.group;grIcon=mxgraph.aws4.group_region;strokeColor=#147EBA;fillColor=none;verticalAlign=top;align=left;spacingLeft=30;fontColor=#147EBA;dashed=1;" vertex="1" parent="1">
          <mxGeometry x="480" y="5" width="310" height="495" as="geometry" />
        </mxCell>
        <mxCell id="XB9ZX82qE_2Oj1gt79N6-16" value="eu-west-2b" style="sketch=0;outlineConnect=0;gradientColor=none;html=1;whiteSpace=wrap;fontSize=12;fontStyle=0;shape=mxgraph.aws4.group;grIcon=mxgraph.aws4.group_availability_zone;strokeColor=#545B64;fillColor=none;verticalAlign=top;align=left;spacingLeft=30;fontColor=#545B64;dashed=1;" vertex="1" parent="XB9ZX82qE_2Oj1gt79N6-14">
          <mxGeometry x="20" y="140" width="270" height="330" as="geometry" />
        </mxCell>
        <mxCell id="XB9ZX82qE_2Oj1gt79N6-17" value="Public Subnet" style="sketch=0;outlineConnect=0;gradientColor=none;html=1;whiteSpace=wrap;fontSize=12;fontStyle=0;shape=mxgraph.aws4.group;grIcon=mxgraph.aws4.group_subnet;strokeColor=#879196;fillColor=none;verticalAlign=top;align=left;spacingLeft=30;fontColor=#879196;dashed=0;" vertex="1" parent="XB9ZX82qE_2Oj1gt79N6-14">
          <mxGeometry x="40" y="180" width="230" height="260" as="geometry" />
        </mxCell>
        <mxCell id="XB9ZX82qE_2Oj1gt79N6-22" value="&lt;div&gt;&lt;br&gt;&lt;/div&gt;&lt;div&gt;&lt;br&gt;&lt;/div&gt;&lt;div&gt;&lt;br&gt;&lt;/div&gt;&lt;div&gt;&lt;br&gt;&lt;/div&gt;&lt;div&gt;&lt;br&gt;&lt;/div&gt;&lt;div&gt;&lt;br&gt;&lt;/div&gt;&lt;div&gt;&lt;br&gt;&lt;/div&gt;&lt;div&gt;&lt;br&gt;&lt;/div&gt;&lt;div&gt;443:8090&lt;/div&gt;&lt;div&gt;Security Group&lt;br&gt;&lt;/div&gt;&lt;div&gt;&lt;br&gt;&lt;/div&gt;&lt;div&gt;0.0.0.0/0&lt;br&gt;&lt;/div&gt;" style="fillColor=none;strokeColor=#DD3522;verticalAlign=top;fontStyle=0;fontColor=#DD3522;whiteSpace=wrap;html=1;" vertex="1" parent="XB9ZX82qE_2Oj1gt79N6-14">
          <mxGeometry x="80" y="215" width="150" height="200" as="geometry" />
        </mxCell>
        <mxCell id="XB9ZX82qE_2Oj1gt79N6-18" value="Pocketbase&lt;br&gt;:8090" style="outlineConnect=0;dashed=0;verticalLabelPosition=bottom;verticalAlign=top;align=center;html=1;shape=mxgraph.aws3.ec2;fillColor=#F58534;gradientColor=none;" vertex="1" parent="XB9ZX82qE_2Oj1gt79N6-14">
          <mxGeometry x="138.55" y="255" width="32.9" height="40" as="geometry" />
        </mxCell>
        <mxCell id="XB9ZX82qE_2Oj1gt79N6-39" value="&lt;div&gt;OS Volume&lt;br&gt;5GB&lt;br&gt;&lt;/div&gt;" style="outlineConnect=0;dashed=0;verticalLabelPosition=bottom;verticalAlign=top;align=center;html=1;shape=mxgraph.aws3.volume;fillColor=#E05243;gradientColor=none;" vertex="1" parent="XB9ZX82qE_2Oj1gt79N6-14">
          <mxGeometry x="90" y="45" width="28" height="40" as="geometry" />
        </mxCell>
        <mxCell id="XB9ZX82qE_2Oj1gt79N6-43" style="edgeStyle=orthogonalEdgeStyle;rounded=0;orthogonalLoop=1;jettySize=auto;html=1;" edge="1" parent="XB9ZX82qE_2Oj1gt79N6-14" source="XB9ZX82qE_2Oj1gt79N6-18" target="XB9ZX82qE_2Oj1gt79N6-39">
          <mxGeometry relative="1" as="geometry">
            <Array as="points">
              <mxPoint x="155" y="65" />
            </Array>
          </mxGeometry>
        </mxCell>
        <mxCell id="XB9ZX82qE_2Oj1gt79N6-40" value="&lt;div&gt;Pocketbase&lt;/div&gt;&lt;div&gt;5GB&lt;br&gt;&lt;/div&gt;" style="outlineConnect=0;dashed=0;verticalLabelPosition=bottom;verticalAlign=top;align=center;html=1;shape=mxgraph.aws3.volume;fillColor=#E05243;gradientColor=none;" vertex="1" parent="XB9ZX82qE_2Oj1gt79N6-14">
          <mxGeometry x="190" y="45" width="28" height="40" as="geometry" />
        </mxCell>
        <mxCell id="XB9ZX82qE_2Oj1gt79N6-44" style="edgeStyle=orthogonalEdgeStyle;rounded=0;orthogonalLoop=1;jettySize=auto;html=1;entryX=0;entryY=0.5;entryDx=0;entryDy=0;entryPerimeter=0;" edge="1" parent="XB9ZX82qE_2Oj1gt79N6-14" source="XB9ZX82qE_2Oj1gt79N6-18" target="XB9ZX82qE_2Oj1gt79N6-40">
          <mxGeometry relative="1" as="geometry">
            <Array as="points">
              <mxPoint x="155" y="65" />
            </Array>
          </mxGeometry>
        </mxCell>
        <mxCell id="XB9ZX82qE_2Oj1gt79N6-29" value="" style="group" vertex="1" connectable="0" parent="1">
          <mxGeometry x="70" y="-80" width="60" height="65" as="geometry" />
        </mxCell>
        <mxCell id="XB9ZX82qE_2Oj1gt79N6-27" value="" style="shape=actor;whiteSpace=wrap;html=1;" vertex="1" parent="XB9ZX82qE_2Oj1gt79N6-29">
          <mxGeometry x="15" width="30" height="35" as="geometry" />
        </mxCell>
        <mxCell id="XB9ZX82qE_2Oj1gt79N6-28" value="Clients" style="text;html=1;strokeColor=none;fillColor=none;align=center;verticalAlign=middle;whiteSpace=wrap;rounded=0;" vertex="1" parent="XB9ZX82qE_2Oj1gt79N6-29">
          <mxGeometry y="35" width="60" height="30" as="geometry" />
        </mxCell>
        <mxCell id="XB9ZX82qE_2Oj1gt79N6-30" style="edgeStyle=orthogonalEdgeStyle;rounded=0;orthogonalLoop=1;jettySize=auto;html=1;entryX=0;entryY=0.75;entryDx=0;entryDy=0;" edge="1" parent="1" source="XB9ZX82qE_2Oj1gt79N6-27" target="jJKlzhtBrw8RwIzrtY0X-12">
          <mxGeometry relative="1" as="geometry">
            <Array as="points">
              <mxPoint x="20" y="-50" />
              <mxPoint x="20" y="263" />
            </Array>
          </mxGeometry>
        </mxCell>
        <mxCell id="XB9ZX82qE_2Oj1gt79N6-37" value="tfstate" style="sketch=0;points=[[0,0,0],[0.25,0,0],[0.5,0,0],[0.75,0,0],[1,0,0],[0,1,0],[0.25,1,0],[0.5,1,0],[0.75,1,0],[1,1,0],[0,0.25,0],[0,0.5,0],[0,0.75,0],[1,0.25,0],[1,0.5,0],[1,0.75,0]];outlineConnect=0;fontColor=#232F3E;fillColor=#7AA116;strokeColor=#ffffff;dashed=0;verticalLabelPosition=bottom;verticalAlign=top;align=center;html=1;fontSize=12;fontStyle=0;aspect=fixed;shape=mxgraph.aws4.resourceIcon;resIcon=mxgraph.aws4.s3;" vertex="1" parent="1">
          <mxGeometry x="500" y="50" width="40" height="40" as="geometry" />
        </mxCell>
      </root>
    </mxGraphModel>
  </diagram>
</mxfile>
